<mxfile host="Electron" modified="2023-10-20T17:01:37.739Z" agent="Mozilla/5.0 (Windows NT 10.0; Win64; x64) AppleWebKit/537.36 (KHTML, like Gecko) draw.io/21.6.8 Chrome/114.0.5735.289 Electron/25.5.0 Safari/537.36" etag="mbYGGbxJf1ED1GNgUAmj" version="21.6.8" type="device" pages="4">
  <diagram id="fTXtnFK0Ndr19WSMWNp7" name="ER Model old">
    <mxGraphModel dx="186" dy="614" grid="1" gridSize="10" guides="1" tooltips="1" connect="1" arrows="1" fold="1" page="1" pageScale="1" pageWidth="850" pageHeight="1100" math="0" shadow="0">
      <root>
        <mxCell id="0" />
        <mxCell id="1" parent="0" />
        <mxCell id="Aw3C7vsJ4upIhRnbJxii-6" value="classes" style="swimlane;fontStyle=0;childLayout=stackLayout;horizontal=1;startSize=26;horizontalStack=0;resizeParent=1;resizeParentMax=0;resizeLast=0;collapsible=1;marginBottom=0;align=center;fontSize=14;" parent="1" vertex="1">
          <mxGeometry x="1380" y="700" width="160" height="116" as="geometry" />
        </mxCell>
        <mxCell id="Aw3C7vsJ4upIhRnbJxii-7" value="&lt;b&gt;*class_id&lt;/b&gt;" style="text;strokeColor=none;fillColor=none;spacingLeft=4;spacingRight=4;overflow=hidden;rotatable=0;points=[[0,0.5],[1,0.5]];portConstraint=eastwest;fontSize=12;whiteSpace=wrap;html=1;" parent="Aw3C7vsJ4upIhRnbJxii-6" vertex="1">
          <mxGeometry y="26" width="160" height="30" as="geometry" />
        </mxCell>
        <mxCell id="Aw3C7vsJ4upIhRnbJxii-10" value="max_participants" style="text;strokeColor=none;fillColor=none;spacingLeft=4;spacingRight=4;overflow=hidden;rotatable=0;points=[[0,0.5],[1,0.5]];portConstraint=eastwest;fontSize=12;whiteSpace=wrap;html=1;" parent="Aw3C7vsJ4upIhRnbJxii-6" vertex="1">
          <mxGeometry y="56" width="160" height="30" as="geometry" />
        </mxCell>
        <mxCell id="Aw3C7vsJ4upIhRnbJxii-11" value="date" style="text;strokeColor=none;fillColor=none;spacingLeft=4;spacingRight=4;overflow=hidden;rotatable=0;points=[[0,0.5],[1,0.5]];portConstraint=eastwest;fontSize=12;whiteSpace=wrap;html=1;" parent="Aw3C7vsJ4upIhRnbJxii-6" vertex="1">
          <mxGeometry y="86" width="160" height="30" as="geometry" />
        </mxCell>
        <mxCell id="Aw3C7vsJ4upIhRnbJxii-14" value="users" style="swimlane;fontStyle=0;childLayout=stackLayout;horizontal=1;startSize=26;horizontalStack=0;resizeParent=1;resizeParentMax=0;resizeLast=0;collapsible=1;marginBottom=0;align=center;fontSize=14;" parent="1" vertex="1">
          <mxGeometry x="950" y="700" width="160" height="266" as="geometry" />
        </mxCell>
        <mxCell id="Aw3C7vsJ4upIhRnbJxii-15" value="&lt;b&gt;*user_id&lt;/b&gt;" style="text;strokeColor=none;fillColor=none;spacingLeft=4;spacingRight=4;overflow=hidden;rotatable=0;points=[[0,0.5],[1,0.5]];portConstraint=eastwest;fontSize=12;whiteSpace=wrap;html=1;" parent="Aw3C7vsJ4upIhRnbJxii-14" vertex="1">
          <mxGeometry y="26" width="160" height="30" as="geometry" />
        </mxCell>
        <mxCell id="Aw3C7vsJ4upIhRnbJxii-16" value="first_name" style="text;strokeColor=none;fillColor=none;spacingLeft=4;spacingRight=4;overflow=hidden;rotatable=0;points=[[0,0.5],[1,0.5]];portConstraint=eastwest;fontSize=12;whiteSpace=wrap;html=1;" parent="Aw3C7vsJ4upIhRnbJxii-14" vertex="1">
          <mxGeometry y="56" width="160" height="30" as="geometry" />
        </mxCell>
        <mxCell id="Aw3C7vsJ4upIhRnbJxii-17" value="last_name" style="text;strokeColor=none;fillColor=none;spacingLeft=4;spacingRight=4;overflow=hidden;rotatable=0;points=[[0,0.5],[1,0.5]];portConstraint=eastwest;fontSize=12;whiteSpace=wrap;html=1;" parent="Aw3C7vsJ4upIhRnbJxii-14" vertex="1">
          <mxGeometry y="86" width="160" height="30" as="geometry" />
        </mxCell>
        <mxCell id="Aw3C7vsJ4upIhRnbJxii-18" value="sex" style="text;strokeColor=none;fillColor=none;spacingLeft=4;spacingRight=4;overflow=hidden;rotatable=0;points=[[0,0.5],[1,0.5]];portConstraint=eastwest;fontSize=12;whiteSpace=wrap;html=1;" parent="Aw3C7vsJ4upIhRnbJxii-14" vertex="1">
          <mxGeometry y="116" width="160" height="30" as="geometry" />
        </mxCell>
        <mxCell id="Aw3C7vsJ4upIhRnbJxii-19" value="date_of_birth" style="text;strokeColor=none;fillColor=none;spacingLeft=4;spacingRight=4;overflow=hidden;rotatable=0;points=[[0,0.5],[1,0.5]];portConstraint=eastwest;fontSize=12;whiteSpace=wrap;html=1;" parent="Aw3C7vsJ4upIhRnbJxii-14" vertex="1">
          <mxGeometry y="146" width="160" height="30" as="geometry" />
        </mxCell>
        <mxCell id="Aw3C7vsJ4upIhRnbJxii-20" value="phone" style="text;strokeColor=none;fillColor=none;spacingLeft=4;spacingRight=4;overflow=hidden;rotatable=0;points=[[0,0.5],[1,0.5]];portConstraint=eastwest;fontSize=12;whiteSpace=wrap;html=1;" parent="Aw3C7vsJ4upIhRnbJxii-14" vertex="1">
          <mxGeometry y="176" width="160" height="30" as="geometry" />
        </mxCell>
        <mxCell id="Aw3C7vsJ4upIhRnbJxii-21" value="email" style="text;strokeColor=none;fillColor=none;spacingLeft=4;spacingRight=4;overflow=hidden;rotatable=0;points=[[0,0.5],[1,0.5]];portConstraint=eastwest;fontSize=12;whiteSpace=wrap;html=1;" parent="Aw3C7vsJ4upIhRnbJxii-14" vertex="1">
          <mxGeometry y="206" width="160" height="30" as="geometry" />
        </mxCell>
        <mxCell id="Aw3C7vsJ4upIhRnbJxii-22" value="address" style="text;strokeColor=none;fillColor=none;spacingLeft=4;spacingRight=4;overflow=hidden;rotatable=0;points=[[0,0.5],[1,0.5]];portConstraint=eastwest;fontSize=12;whiteSpace=wrap;html=1;" parent="Aw3C7vsJ4upIhRnbJxii-14" vertex="1">
          <mxGeometry y="236" width="160" height="30" as="geometry" />
        </mxCell>
        <mxCell id="Aw3C7vsJ4upIhRnbJxii-23" value="gyms" style="swimlane;fontStyle=0;childLayout=stackLayout;horizontal=1;startSize=26;horizontalStack=0;resizeParent=1;resizeParentMax=0;resizeLast=0;collapsible=1;marginBottom=0;align=center;fontSize=14;" parent="1" vertex="1">
          <mxGeometry x="950" y="440" width="160" height="206" as="geometry">
            <mxRectangle x="1070" y="344" width="70" height="30" as="alternateBounds" />
          </mxGeometry>
        </mxCell>
        <mxCell id="Aw3C7vsJ4upIhRnbJxii-24" value="&lt;b&gt;*gym_id&lt;/b&gt;" style="text;strokeColor=none;fillColor=none;spacingLeft=4;spacingRight=4;overflow=hidden;rotatable=0;points=[[0,0.5],[1,0.5]];portConstraint=eastwest;fontSize=12;whiteSpace=wrap;html=1;" parent="Aw3C7vsJ4upIhRnbJxii-23" vertex="1">
          <mxGeometry y="26" width="160" height="30" as="geometry" />
        </mxCell>
        <mxCell id="Aw3C7vsJ4upIhRnbJxii-25" value="gym_name" style="text;strokeColor=none;fillColor=none;spacingLeft=4;spacingRight=4;overflow=hidden;rotatable=0;points=[[0,0.5],[1,0.5]];portConstraint=eastwest;fontSize=12;whiteSpace=wrap;html=1;" parent="Aw3C7vsJ4upIhRnbJxii-23" vertex="1">
          <mxGeometry y="56" width="160" height="30" as="geometry" />
        </mxCell>
        <mxCell id="Aw3C7vsJ4upIhRnbJxii-26" value="address" style="text;strokeColor=none;fillColor=none;spacingLeft=4;spacingRight=4;overflow=hidden;rotatable=0;points=[[0,0.5],[1,0.5]];portConstraint=eastwest;fontSize=12;whiteSpace=wrap;html=1;" parent="Aw3C7vsJ4upIhRnbJxii-23" vertex="1">
          <mxGeometry y="86" width="160" height="30" as="geometry" />
        </mxCell>
        <mxCell id="Aw3C7vsJ4upIhRnbJxii-27" value="home_page" style="text;strokeColor=none;fillColor=none;spacingLeft=4;spacingRight=4;overflow=hidden;rotatable=0;points=[[0,0.5],[1,0.5]];portConstraint=eastwest;fontSize=12;whiteSpace=wrap;html=1;" parent="Aw3C7vsJ4upIhRnbJxii-23" vertex="1">
          <mxGeometry y="116" width="160" height="30" as="geometry" />
        </mxCell>
        <mxCell id="Aw3C7vsJ4upIhRnbJxii-28" value="phone" style="text;strokeColor=none;fillColor=none;spacingLeft=4;spacingRight=4;overflow=hidden;rotatable=0;points=[[0,0.5],[1,0.5]];portConstraint=eastwest;fontSize=12;whiteSpace=wrap;html=1;" parent="Aw3C7vsJ4upIhRnbJxii-23" vertex="1">
          <mxGeometry y="146" width="160" height="30" as="geometry" />
        </mxCell>
        <mxCell id="Aw3C7vsJ4upIhRnbJxii-29" value="email" style="text;strokeColor=none;fillColor=none;spacingLeft=4;spacingRight=4;overflow=hidden;rotatable=0;points=[[0,0.5],[1,0.5]];portConstraint=eastwest;fontSize=12;whiteSpace=wrap;html=1;" parent="Aw3C7vsJ4upIhRnbJxii-23" vertex="1">
          <mxGeometry y="176" width="160" height="30" as="geometry" />
        </mxCell>
        <mxCell id="Aw3C7vsJ4upIhRnbJxii-30" value="contracts" style="swimlane;fontStyle=0;childLayout=stackLayout;horizontal=1;startSize=26;horizontalStack=0;resizeParent=1;resizeParentMax=0;resizeLast=0;collapsible=1;marginBottom=0;align=center;fontSize=14;" parent="1" vertex="1">
          <mxGeometry x="1380" y="850" width="160" height="116" as="geometry" />
        </mxCell>
        <mxCell id="Aw3C7vsJ4upIhRnbJxii-31" value="&lt;b&gt;*contract_id&lt;/b&gt;" style="text;strokeColor=none;fillColor=none;spacingLeft=4;spacingRight=4;overflow=hidden;rotatable=0;points=[[0,0.5],[1,0.5]];portConstraint=eastwest;fontSize=12;whiteSpace=wrap;html=1;" parent="Aw3C7vsJ4upIhRnbJxii-30" vertex="1">
          <mxGeometry y="26" width="160" height="30" as="geometry" />
        </mxCell>
        <mxCell id="Aw3C7vsJ4upIhRnbJxii-32" value="timestamp" style="text;strokeColor=none;fillColor=none;spacingLeft=4;spacingRight=4;overflow=hidden;rotatable=0;points=[[0,0.5],[1,0.5]];portConstraint=eastwest;fontSize=12;whiteSpace=wrap;html=1;" parent="Aw3C7vsJ4upIhRnbJxii-30" vertex="1">
          <mxGeometry y="56" width="160" height="30" as="geometry" />
        </mxCell>
        <mxCell id="Aw3C7vsJ4upIhRnbJxii-33" value="payment_method" style="text;strokeColor=none;fillColor=none;spacingLeft=4;spacingRight=4;overflow=hidden;rotatable=0;points=[[0,0.5],[1,0.5]];portConstraint=eastwest;fontSize=12;whiteSpace=wrap;html=1;" parent="Aw3C7vsJ4upIhRnbJxii-30" vertex="1">
          <mxGeometry y="86" width="160" height="30" as="geometry" />
        </mxCell>
        <mxCell id="Aw3C7vsJ4upIhRnbJxii-36" value="coaches" style="swimlane;fontStyle=0;childLayout=stackLayout;horizontal=1;startSize=26;horizontalStack=0;resizeParent=1;resizeParentMax=0;resizeLast=0;collapsible=1;marginBottom=0;align=center;fontSize=14;" parent="1" vertex="1">
          <mxGeometry x="1170" y="590" width="160" height="176" as="geometry" />
        </mxCell>
        <mxCell id="Aw3C7vsJ4upIhRnbJxii-37" value="&lt;b&gt;*coach_id&lt;/b&gt;" style="text;strokeColor=none;fillColor=none;spacingLeft=4;spacingRight=4;overflow=hidden;rotatable=0;points=[[0,0.5],[1,0.5]];portConstraint=eastwest;fontSize=12;whiteSpace=wrap;html=1;" parent="Aw3C7vsJ4upIhRnbJxii-36" vertex="1">
          <mxGeometry y="26" width="160" height="30" as="geometry" />
        </mxCell>
        <mxCell id="Aw3C7vsJ4upIhRnbJxii-38" value="first_name" style="text;strokeColor=none;fillColor=none;spacingLeft=4;spacingRight=4;overflow=hidden;rotatable=0;points=[[0,0.5],[1,0.5]];portConstraint=eastwest;fontSize=12;whiteSpace=wrap;html=1;" parent="Aw3C7vsJ4upIhRnbJxii-36" vertex="1">
          <mxGeometry y="56" width="160" height="30" as="geometry" />
        </mxCell>
        <mxCell id="Aw3C7vsJ4upIhRnbJxii-39" value="last_name" style="text;strokeColor=none;fillColor=none;spacingLeft=4;spacingRight=4;overflow=hidden;rotatable=0;points=[[0,0.5],[1,0.5]];portConstraint=eastwest;fontSize=12;whiteSpace=wrap;html=1;" parent="Aw3C7vsJ4upIhRnbJxii-36" vertex="1">
          <mxGeometry y="86" width="160" height="30" as="geometry" />
        </mxCell>
        <mxCell id="Aw3C7vsJ4upIhRnbJxii-40" value="description" style="text;strokeColor=none;fillColor=none;spacingLeft=4;spacingRight=4;overflow=hidden;rotatable=0;points=[[0,0.5],[1,0.5]];portConstraint=eastwest;fontSize=12;whiteSpace=wrap;html=1;" parent="Aw3C7vsJ4upIhRnbJxii-36" vertex="1">
          <mxGeometry y="116" width="160" height="30" as="geometry" />
        </mxCell>
        <mxCell id="0b7w9jftcxU7Dx8x-RsL-6" value="employment_date" style="text;strokeColor=none;fillColor=none;spacingLeft=4;spacingRight=4;overflow=hidden;rotatable=0;points=[[0,0.5],[1,0.5]];portConstraint=eastwest;fontSize=12;whiteSpace=wrap;html=1;" parent="Aw3C7vsJ4upIhRnbJxii-36" vertex="1">
          <mxGeometry y="146" width="160" height="30" as="geometry" />
        </mxCell>
        <mxCell id="ttF-POsLA9uHql7ebgrN-4" value="" style="edgeStyle=orthogonalEdgeStyle;fontSize=12;html=1;endArrow=ERoneToMany;startArrow=ERmandOne;rounded=0;" parent="1" source="Aw3C7vsJ4upIhRnbJxii-23" target="Aw3C7vsJ4upIhRnbJxii-36" edge="1">
          <mxGeometry width="100" height="100" relative="1" as="geometry">
            <mxPoint x="1150" y="387" as="sourcePoint" />
            <mxPoint x="1150" y="317" as="targetPoint" />
          </mxGeometry>
        </mxCell>
        <mxCell id="0b7w9jftcxU7Dx8x-RsL-1" value="" style="edgeStyle=orthogonalEdgeStyle;fontSize=12;html=1;endArrow=ERzeroToMany;endFill=1;startArrow=ERzeroToMany;rounded=0;" parent="1" source="Aw3C7vsJ4upIhRnbJxii-14" target="Aw3C7vsJ4upIhRnbJxii-23" edge="1">
          <mxGeometry width="100" height="100" relative="1" as="geometry">
            <mxPoint x="810" y="737" as="sourcePoint" />
            <mxPoint x="910" y="637" as="targetPoint" />
          </mxGeometry>
        </mxCell>
        <mxCell id="CNk28hW-VQh_n1wP3BGE-1" value="contracts_terms" style="swimlane;fontStyle=0;childLayout=stackLayout;horizontal=1;startSize=26;horizontalStack=0;resizeParent=1;resizeParentMax=0;resizeLast=0;collapsible=1;marginBottom=0;align=center;fontSize=14;" parent="1" vertex="1">
          <mxGeometry x="1380" y="500" width="160" height="146" as="geometry" />
        </mxCell>
        <mxCell id="CNk28hW-VQh_n1wP3BGE-2" value="&lt;b&gt;&lt;u&gt;contract_terms_id&lt;/u&gt;&lt;/b&gt;" style="text;strokeColor=none;fillColor=none;spacingLeft=4;spacingRight=4;overflow=hidden;rotatable=0;points=[[0,0.5],[1,0.5]];portConstraint=eastwest;fontSize=12;whiteSpace=wrap;html=1;" parent="CNk28hW-VQh_n1wP3BGE-1" vertex="1">
          <mxGeometry y="26" width="160" height="30" as="geometry" />
        </mxCell>
        <mxCell id="CNk28hW-VQh_n1wP3BGE-3" value="contract_name" style="text;strokeColor=none;fillColor=none;spacingLeft=4;spacingRight=4;overflow=hidden;rotatable=0;points=[[0,0.5],[1,0.5]];portConstraint=eastwest;fontSize=12;whiteSpace=wrap;html=1;" parent="CNk28hW-VQh_n1wP3BGE-1" vertex="1">
          <mxGeometry y="56" width="160" height="30" as="geometry" />
        </mxCell>
        <mxCell id="CNk28hW-VQh_n1wP3BGE-7" value="course_name" style="text;strokeColor=none;fillColor=none;spacingLeft=4;spacingRight=4;overflow=hidden;rotatable=0;points=[[0,0.5],[1,0.5]];portConstraint=eastwest;fontSize=12;whiteSpace=wrap;html=1;" parent="CNk28hW-VQh_n1wP3BGE-1" vertex="1">
          <mxGeometry y="86" width="160" height="30" as="geometry" />
        </mxCell>
        <mxCell id="CNk28hW-VQh_n1wP3BGE-4" value="price" style="text;strokeColor=none;fillColor=none;spacingLeft=4;spacingRight=4;overflow=hidden;rotatable=0;points=[[0,0.5],[1,0.5]];portConstraint=eastwest;fontSize=12;whiteSpace=wrap;html=1;" parent="CNk28hW-VQh_n1wP3BGE-1" vertex="1">
          <mxGeometry y="116" width="160" height="30" as="geometry" />
        </mxCell>
        <mxCell id="CNk28hW-VQh_n1wP3BGE-9" value="" style="edgeStyle=orthogonalEdgeStyle;fontSize=12;html=1;endArrow=ERoneToMany;startArrow=ERmandOne;rounded=0;" parent="1" source="Aw3C7vsJ4upIhRnbJxii-23" target="CNk28hW-VQh_n1wP3BGE-1" edge="1">
          <mxGeometry width="100" height="100" relative="1" as="geometry">
            <mxPoint x="1300" y="540" as="sourcePoint" />
            <mxPoint x="1400" y="440" as="targetPoint" />
            <Array as="points">
              <mxPoint x="1250" y="520" />
              <mxPoint x="1250" y="520" />
            </Array>
          </mxGeometry>
        </mxCell>
        <mxCell id="CNk28hW-VQh_n1wP3BGE-10" value="" style="edgeStyle=orthogonalEdgeStyle;fontSize=12;html=1;endArrow=ERoneToMany;startArrow=ERmandOne;rounded=0;" parent="1" source="CNk28hW-VQh_n1wP3BGE-1" target="Aw3C7vsJ4upIhRnbJxii-30" edge="1">
          <mxGeometry width="100" height="100" relative="1" as="geometry">
            <mxPoint x="1470" y="540" as="sourcePoint" />
            <mxPoint x="1570" y="440" as="targetPoint" />
            <Array as="points">
              <mxPoint x="1570" y="613" />
              <mxPoint x="1570" y="908" />
            </Array>
          </mxGeometry>
        </mxCell>
        <mxCell id="CNk28hW-VQh_n1wP3BGE-11" value="" style="edgeStyle=orthogonalEdgeStyle;fontSize=12;html=1;endArrow=ERoneToMany;startArrow=ERmandOne;rounded=0;" parent="1" source="Aw3C7vsJ4upIhRnbJxii-14" target="Aw3C7vsJ4upIhRnbJxii-30" edge="1">
          <mxGeometry width="100" height="100" relative="1" as="geometry">
            <mxPoint x="1260" y="630" as="sourcePoint" />
            <mxPoint x="1360" y="530" as="targetPoint" />
            <Array as="points">
              <mxPoint x="1255" y="870" />
              <mxPoint x="1255" y="908" />
            </Array>
          </mxGeometry>
        </mxCell>
        <mxCell id="CNk28hW-VQh_n1wP3BGE-14" value="" style="edgeStyle=orthogonalEdgeStyle;fontSize=12;html=1;endArrow=ERoneToMany;startArrow=ERzeroToMany;rounded=0;entryX=1;entryY=0.5;entryDx=0;entryDy=0;" parent="1" source="Aw3C7vsJ4upIhRnbJxii-6" target="Aw3C7vsJ4upIhRnbJxii-17" edge="1">
          <mxGeometry width="100" height="100" relative="1" as="geometry">
            <mxPoint x="1160" y="830" as="sourcePoint" />
            <mxPoint x="1180" y="730" as="targetPoint" />
            <Array as="points">
              <mxPoint x="1245" y="800" />
            </Array>
          </mxGeometry>
        </mxCell>
        <mxCell id="CNk28hW-VQh_n1wP3BGE-16" value="" style="edgeStyle=orthogonalEdgeStyle;fontSize=12;html=1;endArrow=ERoneToMany;startArrow=ERoneToMany;rounded=0;" parent="1" source="CNk28hW-VQh_n1wP3BGE-1" target="Aw3C7vsJ4upIhRnbJxii-6" edge="1">
          <mxGeometry width="100" height="100" relative="1" as="geometry">
            <mxPoint x="1280" y="800" as="sourcePoint" />
            <mxPoint x="1380" y="700" as="targetPoint" />
          </mxGeometry>
        </mxCell>
        <mxCell id="CNk28hW-VQh_n1wP3BGE-17" value="" style="edgeStyle=orthogonalEdgeStyle;fontSize=12;html=1;endArrow=ERoneToMany;startArrow=ERmandOne;rounded=0;" parent="1" source="Aw3C7vsJ4upIhRnbJxii-6" target="Aw3C7vsJ4upIhRnbJxii-36" edge="1">
          <mxGeometry width="100" height="100" relative="1" as="geometry">
            <mxPoint x="1260" y="770" as="sourcePoint" />
            <mxPoint x="1360" y="670" as="targetPoint" />
          </mxGeometry>
        </mxCell>
      </root>
    </mxGraphModel>
  </diagram>
  <diagram name="ER Model" id="qGv3iLs_hQp7Y6CihfZV">
    <mxGraphModel dx="186" dy="614" grid="1" gridSize="10" guides="1" tooltips="1" connect="1" arrows="1" fold="1" page="1" pageScale="1" pageWidth="850" pageHeight="1100" math="0" shadow="0">
      <root>
        <mxCell id="cQ5AxphJadLndw8mtarS-0" />
        <mxCell id="cQ5AxphJadLndw8mtarS-1" parent="cQ5AxphJadLndw8mtarS-0" />
        <mxCell id="cQ5AxphJadLndw8mtarS-2" value="classes" style="swimlane;fontStyle=0;childLayout=stackLayout;horizontal=1;startSize=26;horizontalStack=0;resizeParent=1;resizeParentMax=0;resizeLast=0;collapsible=1;marginBottom=0;align=center;fontSize=14;" parent="cQ5AxphJadLndw8mtarS-1" vertex="1">
          <mxGeometry x="1380" y="680" width="160" height="146" as="geometry" />
        </mxCell>
        <mxCell id="cQ5AxphJadLndw8mtarS-3" value="&lt;b&gt;&lt;u&gt;class_id&lt;/u&gt;&lt;/b&gt;" style="text;strokeColor=none;fillColor=none;spacingLeft=4;spacingRight=4;overflow=hidden;rotatable=0;points=[[0,0.5],[1,0.5]];portConstraint=eastwest;fontSize=12;whiteSpace=wrap;html=1;" parent="cQ5AxphJadLndw8mtarS-2" vertex="1">
          <mxGeometry y="26" width="160" height="30" as="geometry" />
        </mxCell>
        <mxCell id="cQ5AxphJadLndw8mtarS-4" value="max_participants" style="text;strokeColor=none;fillColor=none;spacingLeft=4;spacingRight=4;overflow=hidden;rotatable=0;points=[[0,0.5],[1,0.5]];portConstraint=eastwest;fontSize=12;whiteSpace=wrap;html=1;" parent="cQ5AxphJadLndw8mtarS-2" vertex="1">
          <mxGeometry y="56" width="160" height="30" as="geometry" />
        </mxCell>
        <mxCell id="cQ5AxphJadLndw8mtarS-5" value="start_time" style="text;strokeColor=none;fillColor=none;spacingLeft=4;spacingRight=4;overflow=hidden;rotatable=0;points=[[0,0.5],[1,0.5]];portConstraint=eastwest;fontSize=12;whiteSpace=wrap;html=1;" parent="cQ5AxphJadLndw8mtarS-2" vertex="1">
          <mxGeometry y="86" width="160" height="30" as="geometry" />
        </mxCell>
        <mxCell id="damTFJSeWy9wOPHrB5cy-0" value="end_time&lt;br&gt;" style="text;strokeColor=none;fillColor=none;spacingLeft=4;spacingRight=4;overflow=hidden;rotatable=0;points=[[0,0.5],[1,0.5]];portConstraint=eastwest;fontSize=12;whiteSpace=wrap;html=1;" parent="cQ5AxphJadLndw8mtarS-2" vertex="1">
          <mxGeometry y="116" width="160" height="30" as="geometry" />
        </mxCell>
        <mxCell id="cQ5AxphJadLndw8mtarS-6" value="users" style="swimlane;fontStyle=0;childLayout=stackLayout;horizontal=1;startSize=26;horizontalStack=0;resizeParent=1;resizeParentMax=0;resizeLast=0;collapsible=1;marginBottom=0;align=center;fontSize=14;" parent="cQ5AxphJadLndw8mtarS-1" vertex="1">
          <mxGeometry x="950" y="690" width="160" height="266" as="geometry" />
        </mxCell>
        <mxCell id="cQ5AxphJadLndw8mtarS-7" value="&lt;b&gt;&lt;u&gt;user_id&lt;/u&gt;&lt;/b&gt;" style="text;strokeColor=none;fillColor=none;spacingLeft=4;spacingRight=4;overflow=hidden;rotatable=0;points=[[0,0.5],[1,0.5]];portConstraint=eastwest;fontSize=12;whiteSpace=wrap;html=1;" parent="cQ5AxphJadLndw8mtarS-6" vertex="1">
          <mxGeometry y="26" width="160" height="30" as="geometry" />
        </mxCell>
        <mxCell id="cQ5AxphJadLndw8mtarS-8" value="first_name" style="text;strokeColor=none;fillColor=none;spacingLeft=4;spacingRight=4;overflow=hidden;rotatable=0;points=[[0,0.5],[1,0.5]];portConstraint=eastwest;fontSize=12;whiteSpace=wrap;html=1;" parent="cQ5AxphJadLndw8mtarS-6" vertex="1">
          <mxGeometry y="56" width="160" height="30" as="geometry" />
        </mxCell>
        <mxCell id="cQ5AxphJadLndw8mtarS-9" value="last_name" style="text;strokeColor=none;fillColor=none;spacingLeft=4;spacingRight=4;overflow=hidden;rotatable=0;points=[[0,0.5],[1,0.5]];portConstraint=eastwest;fontSize=12;whiteSpace=wrap;html=1;" parent="cQ5AxphJadLndw8mtarS-6" vertex="1">
          <mxGeometry y="86" width="160" height="30" as="geometry" />
        </mxCell>
        <mxCell id="cQ5AxphJadLndw8mtarS-10" value="sex" style="text;strokeColor=none;fillColor=none;spacingLeft=4;spacingRight=4;overflow=hidden;rotatable=0;points=[[0,0.5],[1,0.5]];portConstraint=eastwest;fontSize=12;whiteSpace=wrap;html=1;" parent="cQ5AxphJadLndw8mtarS-6" vertex="1">
          <mxGeometry y="116" width="160" height="30" as="geometry" />
        </mxCell>
        <mxCell id="cQ5AxphJadLndw8mtarS-11" value="date_of_birth" style="text;strokeColor=none;fillColor=none;spacingLeft=4;spacingRight=4;overflow=hidden;rotatable=0;points=[[0,0.5],[1,0.5]];portConstraint=eastwest;fontSize=12;whiteSpace=wrap;html=1;" parent="cQ5AxphJadLndw8mtarS-6" vertex="1">
          <mxGeometry y="146" width="160" height="30" as="geometry" />
        </mxCell>
        <mxCell id="cQ5AxphJadLndw8mtarS-12" value="phone" style="text;strokeColor=none;fillColor=none;spacingLeft=4;spacingRight=4;overflow=hidden;rotatable=0;points=[[0,0.5],[1,0.5]];portConstraint=eastwest;fontSize=12;whiteSpace=wrap;html=1;" parent="cQ5AxphJadLndw8mtarS-6" vertex="1">
          <mxGeometry y="176" width="160" height="30" as="geometry" />
        </mxCell>
        <mxCell id="cQ5AxphJadLndw8mtarS-13" value="email" style="text;strokeColor=none;fillColor=none;spacingLeft=4;spacingRight=4;overflow=hidden;rotatable=0;points=[[0,0.5],[1,0.5]];portConstraint=eastwest;fontSize=12;whiteSpace=wrap;html=1;" parent="cQ5AxphJadLndw8mtarS-6" vertex="1">
          <mxGeometry y="206" width="160" height="30" as="geometry" />
        </mxCell>
        <mxCell id="cQ5AxphJadLndw8mtarS-14" value="address" style="text;strokeColor=none;fillColor=none;spacingLeft=4;spacingRight=4;overflow=hidden;rotatable=0;points=[[0,0.5],[1,0.5]];portConstraint=eastwest;fontSize=12;whiteSpace=wrap;html=1;" parent="cQ5AxphJadLndw8mtarS-6" vertex="1">
          <mxGeometry y="236" width="160" height="30" as="geometry" />
        </mxCell>
        <mxCell id="cQ5AxphJadLndw8mtarS-15" value="gyms" style="swimlane;fontStyle=0;childLayout=stackLayout;horizontal=1;startSize=26;horizontalStack=0;resizeParent=1;resizeParentMax=0;resizeLast=0;collapsible=1;marginBottom=0;align=center;fontSize=14;" parent="cQ5AxphJadLndw8mtarS-1" vertex="1">
          <mxGeometry x="950" y="440" width="160" height="206" as="geometry">
            <mxRectangle x="1070" y="344" width="70" height="30" as="alternateBounds" />
          </mxGeometry>
        </mxCell>
        <mxCell id="cQ5AxphJadLndw8mtarS-16" value="&lt;b&gt;&lt;u&gt;gym_id&lt;/u&gt;&lt;/b&gt;" style="text;strokeColor=none;fillColor=none;spacingLeft=4;spacingRight=4;overflow=hidden;rotatable=0;points=[[0,0.5],[1,0.5]];portConstraint=eastwest;fontSize=12;whiteSpace=wrap;html=1;" parent="cQ5AxphJadLndw8mtarS-15" vertex="1">
          <mxGeometry y="26" width="160" height="30" as="geometry" />
        </mxCell>
        <mxCell id="cQ5AxphJadLndw8mtarS-17" value="gym_name" style="text;strokeColor=none;fillColor=none;spacingLeft=4;spacingRight=4;overflow=hidden;rotatable=0;points=[[0,0.5],[1,0.5]];portConstraint=eastwest;fontSize=12;whiteSpace=wrap;html=1;" parent="cQ5AxphJadLndw8mtarS-15" vertex="1">
          <mxGeometry y="56" width="160" height="30" as="geometry" />
        </mxCell>
        <mxCell id="cQ5AxphJadLndw8mtarS-18" value="address" style="text;strokeColor=none;fillColor=none;spacingLeft=4;spacingRight=4;overflow=hidden;rotatable=0;points=[[0,0.5],[1,0.5]];portConstraint=eastwest;fontSize=12;whiteSpace=wrap;html=1;" parent="cQ5AxphJadLndw8mtarS-15" vertex="1">
          <mxGeometry y="86" width="160" height="30" as="geometry" />
        </mxCell>
        <mxCell id="cQ5AxphJadLndw8mtarS-19" value="home_page" style="text;strokeColor=none;fillColor=none;spacingLeft=4;spacingRight=4;overflow=hidden;rotatable=0;points=[[0,0.5],[1,0.5]];portConstraint=eastwest;fontSize=12;whiteSpace=wrap;html=1;" parent="cQ5AxphJadLndw8mtarS-15" vertex="1">
          <mxGeometry y="116" width="160" height="30" as="geometry" />
        </mxCell>
        <mxCell id="cQ5AxphJadLndw8mtarS-20" value="phone" style="text;strokeColor=none;fillColor=none;spacingLeft=4;spacingRight=4;overflow=hidden;rotatable=0;points=[[0,0.5],[1,0.5]];portConstraint=eastwest;fontSize=12;whiteSpace=wrap;html=1;" parent="cQ5AxphJadLndw8mtarS-15" vertex="1">
          <mxGeometry y="146" width="160" height="30" as="geometry" />
        </mxCell>
        <mxCell id="cQ5AxphJadLndw8mtarS-21" value="email" style="text;strokeColor=none;fillColor=none;spacingLeft=4;spacingRight=4;overflow=hidden;rotatable=0;points=[[0,0.5],[1,0.5]];portConstraint=eastwest;fontSize=12;whiteSpace=wrap;html=1;" parent="cQ5AxphJadLndw8mtarS-15" vertex="1">
          <mxGeometry y="176" width="160" height="30" as="geometry" />
        </mxCell>
        <mxCell id="cQ5AxphJadLndw8mtarS-22" value="contracts" style="swimlane;fontStyle=0;childLayout=stackLayout;horizontal=1;startSize=26;horizontalStack=0;resizeParent=1;resizeParentMax=0;resizeLast=0;collapsible=1;marginBottom=0;align=center;fontSize=14;" parent="cQ5AxphJadLndw8mtarS-1" vertex="1">
          <mxGeometry x="1380" y="850" width="160" height="116" as="geometry" />
        </mxCell>
        <mxCell id="cQ5AxphJadLndw8mtarS-23" value="&lt;b&gt;&lt;u&gt;contract_id&lt;/u&gt;&lt;/b&gt;" style="text;strokeColor=none;fillColor=none;spacingLeft=4;spacingRight=4;overflow=hidden;rotatable=0;points=[[0,0.5],[1,0.5]];portConstraint=eastwest;fontSize=12;whiteSpace=wrap;html=1;" parent="cQ5AxphJadLndw8mtarS-22" vertex="1">
          <mxGeometry y="26" width="160" height="30" as="geometry" />
        </mxCell>
        <mxCell id="cQ5AxphJadLndw8mtarS-24" value="transaction_time" style="text;strokeColor=none;fillColor=none;spacingLeft=4;spacingRight=4;overflow=hidden;rotatable=0;points=[[0,0.5],[1,0.5]];portConstraint=eastwest;fontSize=12;whiteSpace=wrap;html=1;" parent="cQ5AxphJadLndw8mtarS-22" vertex="1">
          <mxGeometry y="56" width="160" height="30" as="geometry" />
        </mxCell>
        <mxCell id="cQ5AxphJadLndw8mtarS-25" value="payment_method" style="text;strokeColor=none;fillColor=none;spacingLeft=4;spacingRight=4;overflow=hidden;rotatable=0;points=[[0,0.5],[1,0.5]];portConstraint=eastwest;fontSize=12;whiteSpace=wrap;html=1;" parent="cQ5AxphJadLndw8mtarS-22" vertex="1">
          <mxGeometry y="86" width="160" height="30" as="geometry" />
        </mxCell>
        <mxCell id="cQ5AxphJadLndw8mtarS-26" value="coaches" style="swimlane;fontStyle=0;childLayout=stackLayout;horizontal=1;startSize=26;horizontalStack=0;resizeParent=1;resizeParentMax=0;resizeLast=0;collapsible=1;marginBottom=0;align=center;fontSize=14;" parent="cQ5AxphJadLndw8mtarS-1" vertex="1">
          <mxGeometry x="1160" y="570" width="160" height="176" as="geometry" />
        </mxCell>
        <mxCell id="cQ5AxphJadLndw8mtarS-27" value="&lt;b&gt;&lt;u&gt;coach_id&lt;/u&gt;&lt;/b&gt;" style="text;strokeColor=none;fillColor=none;spacingLeft=4;spacingRight=4;overflow=hidden;rotatable=0;points=[[0,0.5],[1,0.5]];portConstraint=eastwest;fontSize=12;whiteSpace=wrap;html=1;" parent="cQ5AxphJadLndw8mtarS-26" vertex="1">
          <mxGeometry y="26" width="160" height="30" as="geometry" />
        </mxCell>
        <mxCell id="cQ5AxphJadLndw8mtarS-28" value="first_name" style="text;strokeColor=none;fillColor=none;spacingLeft=4;spacingRight=4;overflow=hidden;rotatable=0;points=[[0,0.5],[1,0.5]];portConstraint=eastwest;fontSize=12;whiteSpace=wrap;html=1;" parent="cQ5AxphJadLndw8mtarS-26" vertex="1">
          <mxGeometry y="56" width="160" height="30" as="geometry" />
        </mxCell>
        <mxCell id="cQ5AxphJadLndw8mtarS-29" value="last_name" style="text;strokeColor=none;fillColor=none;spacingLeft=4;spacingRight=4;overflow=hidden;rotatable=0;points=[[0,0.5],[1,0.5]];portConstraint=eastwest;fontSize=12;whiteSpace=wrap;html=1;" parent="cQ5AxphJadLndw8mtarS-26" vertex="1">
          <mxGeometry y="86" width="160" height="30" as="geometry" />
        </mxCell>
        <mxCell id="cQ5AxphJadLndw8mtarS-30" value="description" style="text;strokeColor=none;fillColor=none;spacingLeft=4;spacingRight=4;overflow=hidden;rotatable=0;points=[[0,0.5],[1,0.5]];portConstraint=eastwest;fontSize=12;whiteSpace=wrap;html=1;" parent="cQ5AxphJadLndw8mtarS-26" vertex="1">
          <mxGeometry y="116" width="160" height="30" as="geometry" />
        </mxCell>
        <mxCell id="cQ5AxphJadLndw8mtarS-31" value="employment_date" style="text;strokeColor=none;fillColor=none;spacingLeft=4;spacingRight=4;overflow=hidden;rotatable=0;points=[[0,0.5],[1,0.5]];portConstraint=eastwest;fontSize=12;whiteSpace=wrap;html=1;" parent="cQ5AxphJadLndw8mtarS-26" vertex="1">
          <mxGeometry y="146" width="160" height="30" as="geometry" />
        </mxCell>
        <mxCell id="cQ5AxphJadLndw8mtarS-34" value="contract_terms" style="swimlane;fontStyle=0;childLayout=stackLayout;horizontal=1;startSize=26;horizontalStack=0;resizeParent=1;resizeParentMax=0;resizeLast=0;collapsible=1;marginBottom=0;align=center;fontSize=14;" parent="cQ5AxphJadLndw8mtarS-1" vertex="1">
          <mxGeometry x="1380" y="500" width="160" height="146" as="geometry" />
        </mxCell>
        <mxCell id="cQ5AxphJadLndw8mtarS-35" value="&lt;b&gt;&lt;u&gt;contract_terms_id&lt;/u&gt;&lt;/b&gt;" style="text;strokeColor=none;fillColor=none;spacingLeft=4;spacingRight=4;overflow=hidden;rotatable=0;points=[[0,0.5],[1,0.5]];portConstraint=eastwest;fontSize=12;whiteSpace=wrap;html=1;" parent="cQ5AxphJadLndw8mtarS-34" vertex="1">
          <mxGeometry y="26" width="160" height="30" as="geometry" />
        </mxCell>
        <mxCell id="cQ5AxphJadLndw8mtarS-37" value="contract_name" style="text;strokeColor=none;fillColor=none;spacingLeft=4;spacingRight=4;overflow=hidden;rotatable=0;points=[[0,0.5],[1,0.5]];portConstraint=eastwest;fontSize=12;whiteSpace=wrap;html=1;" parent="cQ5AxphJadLndw8mtarS-34" vertex="1">
          <mxGeometry y="56" width="160" height="30" as="geometry" />
        </mxCell>
        <mxCell id="cQ5AxphJadLndw8mtarS-38" value="price" style="text;strokeColor=none;fillColor=none;spacingLeft=4;spacingRight=4;overflow=hidden;rotatable=0;points=[[0,0.5],[1,0.5]];portConstraint=eastwest;fontSize=12;whiteSpace=wrap;html=1;" parent="cQ5AxphJadLndw8mtarS-34" vertex="1">
          <mxGeometry y="86" width="160" height="30" as="geometry" />
        </mxCell>
        <mxCell id="CpKsJE_lcywoecLLPzQW-4" value="description" style="text;strokeColor=none;fillColor=none;spacingLeft=4;spacingRight=4;overflow=hidden;rotatable=0;points=[[0,0.5],[1,0.5]];portConstraint=eastwest;fontSize=12;whiteSpace=wrap;html=1;" parent="cQ5AxphJadLndw8mtarS-34" vertex="1">
          <mxGeometry y="116" width="160" height="30" as="geometry" />
        </mxCell>
        <mxCell id="cQ5AxphJadLndw8mtarS-42" value="" style="edgeStyle=orthogonalEdgeStyle;fontSize=12;html=1;endArrow=ERoneToMany;startArrow=ERzeroToMany;rounded=0;entryX=1;entryY=0.5;entryDx=0;entryDy=0;" parent="cQ5AxphJadLndw8mtarS-1" source="cQ5AxphJadLndw8mtarS-2" target="cQ5AxphJadLndw8mtarS-9" edge="1">
          <mxGeometry width="100" height="100" relative="1" as="geometry">
            <mxPoint x="1160" y="830" as="sourcePoint" />
            <mxPoint x="1180" y="730" as="targetPoint" />
            <Array as="points">
              <mxPoint x="1245" y="800" />
            </Array>
          </mxGeometry>
        </mxCell>
        <mxCell id="cQ5AxphJadLndw8mtarS-43" value="" style="edgeStyle=orthogonalEdgeStyle;fontSize=12;html=1;endArrow=ERoneToMany;startArrow=ERoneToMany;rounded=0;" parent="cQ5AxphJadLndw8mtarS-1" source="cQ5AxphJadLndw8mtarS-34" target="0lUqPJ4eyKtEToXyH1Qp-1" edge="1">
          <mxGeometry width="100" height="100" relative="1" as="geometry">
            <mxPoint x="1280" y="800" as="sourcePoint" />
            <mxPoint x="1380" y="700" as="targetPoint" />
          </mxGeometry>
        </mxCell>
        <mxCell id="0lUqPJ4eyKtEToXyH1Qp-0" value="" style="edgeStyle=entityRelationEdgeStyle;fontSize=12;html=1;endArrow=ERoneToMany;startArrow=ERoneToMany;rounded=0;" parent="cQ5AxphJadLndw8mtarS-1" source="cQ5AxphJadLndw8mtarS-2" target="cQ5AxphJadLndw8mtarS-26" edge="1">
          <mxGeometry width="100" height="100" relative="1" as="geometry">
            <mxPoint x="1250" y="730" as="sourcePoint" />
            <mxPoint x="1350" y="630" as="targetPoint" />
          </mxGeometry>
        </mxCell>
        <mxCell id="0lUqPJ4eyKtEToXyH1Qp-1" value="courses" style="swimlane;fontStyle=0;childLayout=stackLayout;horizontal=1;startSize=26;horizontalStack=0;resizeParent=1;resizeParentMax=0;resizeLast=0;collapsible=1;marginBottom=0;align=center;fontSize=14;" parent="cQ5AxphJadLndw8mtarS-1" vertex="1">
          <mxGeometry x="1610" y="530" width="160" height="86" as="geometry" />
        </mxCell>
        <mxCell id="0lUqPJ4eyKtEToXyH1Qp-2" value="&lt;b&gt;&lt;u&gt;course_id&lt;/u&gt;&lt;/b&gt;" style="text;strokeColor=none;fillColor=none;spacingLeft=4;spacingRight=4;overflow=hidden;rotatable=0;points=[[0,0.5],[1,0.5]];portConstraint=eastwest;fontSize=12;whiteSpace=wrap;html=1;" parent="0lUqPJ4eyKtEToXyH1Qp-1" vertex="1">
          <mxGeometry y="26" width="160" height="30" as="geometry" />
        </mxCell>
        <mxCell id="0lUqPJ4eyKtEToXyH1Qp-3" value="course_name" style="text;strokeColor=none;fillColor=none;spacingLeft=4;spacingRight=4;overflow=hidden;rotatable=0;points=[[0,0.5],[1,0.5]];portConstraint=eastwest;fontSize=12;whiteSpace=wrap;html=1;" parent="0lUqPJ4eyKtEToXyH1Qp-1" vertex="1">
          <mxGeometry y="56" width="160" height="30" as="geometry" />
        </mxCell>
        <mxCell id="8aX9mLPSqissMrFByJTl-0" value="" style="edgeStyle=orthogonalEdgeStyle;fontSize=12;html=1;endArrow=ERzeroToMany;endFill=1;startArrow=ERzeroToMany;rounded=0;" parent="cQ5AxphJadLndw8mtarS-1" source="cQ5AxphJadLndw8mtarS-6" target="cQ5AxphJadLndw8mtarS-15" edge="1">
          <mxGeometry width="100" height="100" relative="1" as="geometry">
            <mxPoint x="1030" y="700" as="sourcePoint" />
            <mxPoint x="1030" y="646" as="targetPoint" />
          </mxGeometry>
        </mxCell>
        <mxCell id="VLYzqjTU1bKH3fM9bGcD-0" value="" style="edgeStyle=orthogonalEdgeStyle;fontSize=12;html=1;endArrow=ERoneToMany;startArrow=ERmandOne;rounded=0;" parent="cQ5AxphJadLndw8mtarS-1" source="cQ5AxphJadLndw8mtarS-6" target="cQ5AxphJadLndw8mtarS-22" edge="1">
          <mxGeometry width="100" height="100" relative="1" as="geometry">
            <mxPoint x="1110" y="870" as="sourcePoint" />
            <mxPoint x="1380" y="908" as="targetPoint" />
            <Array as="points">
              <mxPoint x="1255" y="870" />
              <mxPoint x="1255" y="908" />
            </Array>
          </mxGeometry>
        </mxCell>
        <mxCell id="5f6pVW37hjLrlNr7jv-S-0" value="" style="edgeStyle=orthogonalEdgeStyle;fontSize=12;html=1;endArrow=ERoneToMany;startArrow=ERmandOne;rounded=0;" parent="cQ5AxphJadLndw8mtarS-1" source="cQ5AxphJadLndw8mtarS-15" target="cQ5AxphJadLndw8mtarS-26" edge="1">
          <mxGeometry width="100" height="100" relative="1" as="geometry">
            <mxPoint x="1110" y="543" as="sourcePoint" />
            <mxPoint x="1170" y="678" as="targetPoint" />
          </mxGeometry>
        </mxCell>
        <mxCell id="d1mlj01MNzipZC7AUaa7-0" value="" style="edgeStyle=orthogonalEdgeStyle;fontSize=12;html=1;endArrow=ERoneToMany;startArrow=ERmandOne;rounded=0;" parent="cQ5AxphJadLndw8mtarS-1" source="cQ5AxphJadLndw8mtarS-15" target="cQ5AxphJadLndw8mtarS-34" edge="1">
          <mxGeometry width="100" height="100" relative="1" as="geometry">
            <mxPoint x="1110" y="520" as="sourcePoint" />
            <mxPoint x="1380" y="520" as="targetPoint" />
            <Array as="points">
              <mxPoint x="1245" y="520" />
              <mxPoint x="1245" y="558" />
            </Array>
          </mxGeometry>
        </mxCell>
        <mxCell id="9S8JCI7UuSMYQpB7DKTQ-0" value="" style="edgeStyle=orthogonalEdgeStyle;fontSize=12;html=1;endArrow=ERoneToMany;startArrow=ERmandOne;rounded=0;" parent="cQ5AxphJadLndw8mtarS-1" source="cQ5AxphJadLndw8mtarS-34" target="cQ5AxphJadLndw8mtarS-22" edge="1">
          <mxGeometry width="100" height="100" relative="1" as="geometry">
            <mxPoint x="1540" y="613" as="sourcePoint" />
            <mxPoint x="1540" y="908" as="targetPoint" />
            <Array as="points">
              <mxPoint x="1570" y="590" />
              <mxPoint x="1570" y="908" />
            </Array>
          </mxGeometry>
        </mxCell>
        <mxCell id="03ftVEvrvWNPatXhLiVa-1" value="" style="edgeStyle=orthogonalEdgeStyle;fontSize=12;html=1;endArrow=ERoneToMany;startArrow=ERmandOne;rounded=0;" parent="cQ5AxphJadLndw8mtarS-1" source="0lUqPJ4eyKtEToXyH1Qp-1" target="cQ5AxphJadLndw8mtarS-2" edge="1">
          <mxGeometry width="100" height="100" relative="1" as="geometry">
            <mxPoint x="1630" y="670" as="sourcePoint" />
            <mxPoint x="1800" y="760" as="targetPoint" />
            <Array as="points">
              <mxPoint x="1690" y="758" />
            </Array>
          </mxGeometry>
        </mxCell>
      </root>
    </mxGraphModel>
  </diagram>
  <diagram name="Copy of ER Model" id="1FTNWyswqDuiC1lhE2cV">
    <mxGraphModel dx="186" dy="614" grid="1" gridSize="10" guides="1" tooltips="1" connect="1" arrows="1" fold="1" page="1" pageScale="1" pageWidth="850" pageHeight="1100" math="0" shadow="0">
      <root>
        <mxCell id="RhT7fQPxTv40k2DqF1xs-0" />
        <mxCell id="RhT7fQPxTv40k2DqF1xs-1" parent="RhT7fQPxTv40k2DqF1xs-0" />
        <mxCell id="RhT7fQPxTv40k2DqF1xs-2" value="classes" style="swimlane;fontStyle=0;childLayout=stackLayout;horizontal=1;startSize=26;horizontalStack=0;resizeParent=1;resizeParentMax=0;resizeLast=0;collapsible=1;marginBottom=0;align=center;fontSize=14;" parent="RhT7fQPxTv40k2DqF1xs-1" vertex="1">
          <mxGeometry x="1610" y="734" width="160" height="116" as="geometry" />
        </mxCell>
        <mxCell id="RhT7fQPxTv40k2DqF1xs-3" value="&lt;b&gt;&lt;u&gt;class_id&lt;/u&gt;&lt;/b&gt;" style="text;strokeColor=none;fillColor=none;spacingLeft=4;spacingRight=4;overflow=hidden;rotatable=0;points=[[0,0.5],[1,0.5]];portConstraint=eastwest;fontSize=12;whiteSpace=wrap;html=1;" parent="RhT7fQPxTv40k2DqF1xs-2" vertex="1">
          <mxGeometry y="26" width="160" height="30" as="geometry" />
        </mxCell>
        <mxCell id="RhT7fQPxTv40k2DqF1xs-4" value="max_participants" style="text;strokeColor=none;fillColor=none;spacingLeft=4;spacingRight=4;overflow=hidden;rotatable=0;points=[[0,0.5],[1,0.5]];portConstraint=eastwest;fontSize=12;whiteSpace=wrap;html=1;" parent="RhT7fQPxTv40k2DqF1xs-2" vertex="1">
          <mxGeometry y="56" width="160" height="30" as="geometry" />
        </mxCell>
        <mxCell id="RhT7fQPxTv40k2DqF1xs-5" value="duration" style="text;strokeColor=none;fillColor=none;spacingLeft=4;spacingRight=4;overflow=hidden;rotatable=0;points=[[0,0.5],[1,0.5]];portConstraint=eastwest;fontSize=12;whiteSpace=wrap;html=1;" parent="RhT7fQPxTv40k2DqF1xs-2" vertex="1">
          <mxGeometry y="86" width="160" height="30" as="geometry" />
        </mxCell>
        <mxCell id="RhT7fQPxTv40k2DqF1xs-6" value="users" style="swimlane;fontStyle=0;childLayout=stackLayout;horizontal=1;startSize=26;horizontalStack=0;resizeParent=1;resizeParentMax=0;resizeLast=0;collapsible=1;marginBottom=0;align=center;fontSize=14;" parent="RhT7fQPxTv40k2DqF1xs-1" vertex="1">
          <mxGeometry x="950" y="700" width="160" height="266" as="geometry" />
        </mxCell>
        <mxCell id="RhT7fQPxTv40k2DqF1xs-7" value="&lt;b&gt;&lt;u&gt;user_id&lt;/u&gt;&lt;/b&gt;" style="text;strokeColor=none;fillColor=none;spacingLeft=4;spacingRight=4;overflow=hidden;rotatable=0;points=[[0,0.5],[1,0.5]];portConstraint=eastwest;fontSize=12;whiteSpace=wrap;html=1;" parent="RhT7fQPxTv40k2DqF1xs-6" vertex="1">
          <mxGeometry y="26" width="160" height="30" as="geometry" />
        </mxCell>
        <mxCell id="RhT7fQPxTv40k2DqF1xs-8" value="first_name" style="text;strokeColor=none;fillColor=none;spacingLeft=4;spacingRight=4;overflow=hidden;rotatable=0;points=[[0,0.5],[1,0.5]];portConstraint=eastwest;fontSize=12;whiteSpace=wrap;html=1;" parent="RhT7fQPxTv40k2DqF1xs-6" vertex="1">
          <mxGeometry y="56" width="160" height="30" as="geometry" />
        </mxCell>
        <mxCell id="RhT7fQPxTv40k2DqF1xs-9" value="last_name" style="text;strokeColor=none;fillColor=none;spacingLeft=4;spacingRight=4;overflow=hidden;rotatable=0;points=[[0,0.5],[1,0.5]];portConstraint=eastwest;fontSize=12;whiteSpace=wrap;html=1;" parent="RhT7fQPxTv40k2DqF1xs-6" vertex="1">
          <mxGeometry y="86" width="160" height="30" as="geometry" />
        </mxCell>
        <mxCell id="RhT7fQPxTv40k2DqF1xs-10" value="sex" style="text;strokeColor=none;fillColor=none;spacingLeft=4;spacingRight=4;overflow=hidden;rotatable=0;points=[[0,0.5],[1,0.5]];portConstraint=eastwest;fontSize=12;whiteSpace=wrap;html=1;" parent="RhT7fQPxTv40k2DqF1xs-6" vertex="1">
          <mxGeometry y="116" width="160" height="30" as="geometry" />
        </mxCell>
        <mxCell id="RhT7fQPxTv40k2DqF1xs-11" value="date_of_birth" style="text;strokeColor=none;fillColor=none;spacingLeft=4;spacingRight=4;overflow=hidden;rotatable=0;points=[[0,0.5],[1,0.5]];portConstraint=eastwest;fontSize=12;whiteSpace=wrap;html=1;" parent="RhT7fQPxTv40k2DqF1xs-6" vertex="1">
          <mxGeometry y="146" width="160" height="30" as="geometry" />
        </mxCell>
        <mxCell id="RhT7fQPxTv40k2DqF1xs-12" value="phone" style="text;strokeColor=none;fillColor=none;spacingLeft=4;spacingRight=4;overflow=hidden;rotatable=0;points=[[0,0.5],[1,0.5]];portConstraint=eastwest;fontSize=12;whiteSpace=wrap;html=1;" parent="RhT7fQPxTv40k2DqF1xs-6" vertex="1">
          <mxGeometry y="176" width="160" height="30" as="geometry" />
        </mxCell>
        <mxCell id="RhT7fQPxTv40k2DqF1xs-13" value="email" style="text;strokeColor=none;fillColor=none;spacingLeft=4;spacingRight=4;overflow=hidden;rotatable=0;points=[[0,0.5],[1,0.5]];portConstraint=eastwest;fontSize=12;whiteSpace=wrap;html=1;" parent="RhT7fQPxTv40k2DqF1xs-6" vertex="1">
          <mxGeometry y="206" width="160" height="30" as="geometry" />
        </mxCell>
        <mxCell id="RhT7fQPxTv40k2DqF1xs-14" value="address" style="text;strokeColor=none;fillColor=none;spacingLeft=4;spacingRight=4;overflow=hidden;rotatable=0;points=[[0,0.5],[1,0.5]];portConstraint=eastwest;fontSize=12;whiteSpace=wrap;html=1;" parent="RhT7fQPxTv40k2DqF1xs-6" vertex="1">
          <mxGeometry y="236" width="160" height="30" as="geometry" />
        </mxCell>
        <mxCell id="RhT7fQPxTv40k2DqF1xs-15" value="gyms" style="swimlane;fontStyle=0;childLayout=stackLayout;horizontal=1;startSize=26;horizontalStack=0;resizeParent=1;resizeParentMax=0;resizeLast=0;collapsible=1;marginBottom=0;align=center;fontSize=14;" parent="RhT7fQPxTv40k2DqF1xs-1" vertex="1">
          <mxGeometry x="1500" y="210" width="160" height="206" as="geometry">
            <mxRectangle x="1070" y="344" width="70" height="30" as="alternateBounds" />
          </mxGeometry>
        </mxCell>
        <mxCell id="RhT7fQPxTv40k2DqF1xs-16" value="&lt;b&gt;&lt;u&gt;gym_id&lt;/u&gt;&lt;/b&gt;" style="text;strokeColor=none;fillColor=none;spacingLeft=4;spacingRight=4;overflow=hidden;rotatable=0;points=[[0,0.5],[1,0.5]];portConstraint=eastwest;fontSize=12;whiteSpace=wrap;html=1;" parent="RhT7fQPxTv40k2DqF1xs-15" vertex="1">
          <mxGeometry y="26" width="160" height="30" as="geometry" />
        </mxCell>
        <mxCell id="RhT7fQPxTv40k2DqF1xs-17" value="gym_name" style="text;strokeColor=none;fillColor=none;spacingLeft=4;spacingRight=4;overflow=hidden;rotatable=0;points=[[0,0.5],[1,0.5]];portConstraint=eastwest;fontSize=12;whiteSpace=wrap;html=1;" parent="RhT7fQPxTv40k2DqF1xs-15" vertex="1">
          <mxGeometry y="56" width="160" height="30" as="geometry" />
        </mxCell>
        <mxCell id="RhT7fQPxTv40k2DqF1xs-18" value="address" style="text;strokeColor=none;fillColor=none;spacingLeft=4;spacingRight=4;overflow=hidden;rotatable=0;points=[[0,0.5],[1,0.5]];portConstraint=eastwest;fontSize=12;whiteSpace=wrap;html=1;" parent="RhT7fQPxTv40k2DqF1xs-15" vertex="1">
          <mxGeometry y="86" width="160" height="30" as="geometry" />
        </mxCell>
        <mxCell id="RhT7fQPxTv40k2DqF1xs-19" value="home_page" style="text;strokeColor=none;fillColor=none;spacingLeft=4;spacingRight=4;overflow=hidden;rotatable=0;points=[[0,0.5],[1,0.5]];portConstraint=eastwest;fontSize=12;whiteSpace=wrap;html=1;" parent="RhT7fQPxTv40k2DqF1xs-15" vertex="1">
          <mxGeometry y="116" width="160" height="30" as="geometry" />
        </mxCell>
        <mxCell id="RhT7fQPxTv40k2DqF1xs-20" value="phone" style="text;strokeColor=none;fillColor=none;spacingLeft=4;spacingRight=4;overflow=hidden;rotatable=0;points=[[0,0.5],[1,0.5]];portConstraint=eastwest;fontSize=12;whiteSpace=wrap;html=1;" parent="RhT7fQPxTv40k2DqF1xs-15" vertex="1">
          <mxGeometry y="146" width="160" height="30" as="geometry" />
        </mxCell>
        <mxCell id="RhT7fQPxTv40k2DqF1xs-21" value="email" style="text;strokeColor=none;fillColor=none;spacingLeft=4;spacingRight=4;overflow=hidden;rotatable=0;points=[[0,0.5],[1,0.5]];portConstraint=eastwest;fontSize=12;whiteSpace=wrap;html=1;" parent="RhT7fQPxTv40k2DqF1xs-15" vertex="1">
          <mxGeometry y="176" width="160" height="30" as="geometry" />
        </mxCell>
        <mxCell id="RhT7fQPxTv40k2DqF1xs-22" value="contracts" style="swimlane;fontStyle=0;childLayout=stackLayout;horizontal=1;startSize=26;horizontalStack=0;resizeParent=1;resizeParentMax=0;resizeLast=0;collapsible=1;marginBottom=0;align=center;fontSize=14;" parent="RhT7fQPxTv40k2DqF1xs-1" vertex="1">
          <mxGeometry x="1390" y="870" width="160" height="116" as="geometry" />
        </mxCell>
        <mxCell id="RhT7fQPxTv40k2DqF1xs-23" value="&lt;b&gt;&lt;u&gt;contract_id&lt;/u&gt;&lt;/b&gt;" style="text;strokeColor=none;fillColor=none;spacingLeft=4;spacingRight=4;overflow=hidden;rotatable=0;points=[[0,0.5],[1,0.5]];portConstraint=eastwest;fontSize=12;whiteSpace=wrap;html=1;" parent="RhT7fQPxTv40k2DqF1xs-22" vertex="1">
          <mxGeometry y="26" width="160" height="30" as="geometry" />
        </mxCell>
        <mxCell id="RhT7fQPxTv40k2DqF1xs-24" value="transaction_time" style="text;strokeColor=none;fillColor=none;spacingLeft=4;spacingRight=4;overflow=hidden;rotatable=0;points=[[0,0.5],[1,0.5]];portConstraint=eastwest;fontSize=12;whiteSpace=wrap;html=1;" parent="RhT7fQPxTv40k2DqF1xs-22" vertex="1">
          <mxGeometry y="56" width="160" height="30" as="geometry" />
        </mxCell>
        <mxCell id="RhT7fQPxTv40k2DqF1xs-25" value="payment_method" style="text;strokeColor=none;fillColor=none;spacingLeft=4;spacingRight=4;overflow=hidden;rotatable=0;points=[[0,0.5],[1,0.5]];portConstraint=eastwest;fontSize=12;whiteSpace=wrap;html=1;" parent="RhT7fQPxTv40k2DqF1xs-22" vertex="1">
          <mxGeometry y="86" width="160" height="30" as="geometry" />
        </mxCell>
        <mxCell id="RhT7fQPxTv40k2DqF1xs-26" value="coaches" style="swimlane;fontStyle=0;childLayout=stackLayout;horizontal=1;startSize=26;horizontalStack=0;resizeParent=1;resizeParentMax=0;resizeLast=0;collapsible=1;marginBottom=0;align=center;fontSize=14;" parent="RhT7fQPxTv40k2DqF1xs-1" vertex="1">
          <mxGeometry x="1050" y="340" width="160" height="176" as="geometry" />
        </mxCell>
        <mxCell id="RhT7fQPxTv40k2DqF1xs-27" value="&lt;b&gt;&lt;u&gt;coach_id&lt;/u&gt;&lt;/b&gt;" style="text;strokeColor=none;fillColor=none;spacingLeft=4;spacingRight=4;overflow=hidden;rotatable=0;points=[[0,0.5],[1,0.5]];portConstraint=eastwest;fontSize=12;whiteSpace=wrap;html=1;" parent="RhT7fQPxTv40k2DqF1xs-26" vertex="1">
          <mxGeometry y="26" width="160" height="30" as="geometry" />
        </mxCell>
        <mxCell id="RhT7fQPxTv40k2DqF1xs-28" value="first_name" style="text;strokeColor=none;fillColor=none;spacingLeft=4;spacingRight=4;overflow=hidden;rotatable=0;points=[[0,0.5],[1,0.5]];portConstraint=eastwest;fontSize=12;whiteSpace=wrap;html=1;" parent="RhT7fQPxTv40k2DqF1xs-26" vertex="1">
          <mxGeometry y="56" width="160" height="30" as="geometry" />
        </mxCell>
        <mxCell id="RhT7fQPxTv40k2DqF1xs-29" value="last_name" style="text;strokeColor=none;fillColor=none;spacingLeft=4;spacingRight=4;overflow=hidden;rotatable=0;points=[[0,0.5],[1,0.5]];portConstraint=eastwest;fontSize=12;whiteSpace=wrap;html=1;" parent="RhT7fQPxTv40k2DqF1xs-26" vertex="1">
          <mxGeometry y="86" width="160" height="30" as="geometry" />
        </mxCell>
        <mxCell id="RhT7fQPxTv40k2DqF1xs-30" value="description" style="text;strokeColor=none;fillColor=none;spacingLeft=4;spacingRight=4;overflow=hidden;rotatable=0;points=[[0,0.5],[1,0.5]];portConstraint=eastwest;fontSize=12;whiteSpace=wrap;html=1;" parent="RhT7fQPxTv40k2DqF1xs-26" vertex="1">
          <mxGeometry y="116" width="160" height="30" as="geometry" />
        </mxCell>
        <mxCell id="RhT7fQPxTv40k2DqF1xs-31" value="employment_date" style="text;strokeColor=none;fillColor=none;spacingLeft=4;spacingRight=4;overflow=hidden;rotatable=0;points=[[0,0.5],[1,0.5]];portConstraint=eastwest;fontSize=12;whiteSpace=wrap;html=1;" parent="RhT7fQPxTv40k2DqF1xs-26" vertex="1">
          <mxGeometry y="146" width="160" height="30" as="geometry" />
        </mxCell>
        <mxCell id="RhT7fQPxTv40k2DqF1xs-32" value="contract_terms" style="swimlane;fontStyle=0;childLayout=stackLayout;horizontal=1;startSize=26;horizontalStack=0;resizeParent=1;resizeParentMax=0;resizeLast=0;collapsible=1;marginBottom=0;align=center;fontSize=14;" parent="RhT7fQPxTv40k2DqF1xs-1" vertex="1">
          <mxGeometry x="1380" y="500" width="160" height="146" as="geometry" />
        </mxCell>
        <mxCell id="RhT7fQPxTv40k2DqF1xs-33" value="&lt;b&gt;&lt;u&gt;contract_terms_id&lt;/u&gt;&lt;/b&gt;" style="text;strokeColor=none;fillColor=none;spacingLeft=4;spacingRight=4;overflow=hidden;rotatable=0;points=[[0,0.5],[1,0.5]];portConstraint=eastwest;fontSize=12;whiteSpace=wrap;html=1;" parent="RhT7fQPxTv40k2DqF1xs-32" vertex="1">
          <mxGeometry y="26" width="160" height="30" as="geometry" />
        </mxCell>
        <mxCell id="RhT7fQPxTv40k2DqF1xs-34" value="contract_name" style="text;strokeColor=none;fillColor=none;spacingLeft=4;spacingRight=4;overflow=hidden;rotatable=0;points=[[0,0.5],[1,0.5]];portConstraint=eastwest;fontSize=12;whiteSpace=wrap;html=1;" parent="RhT7fQPxTv40k2DqF1xs-32" vertex="1">
          <mxGeometry y="56" width="160" height="30" as="geometry" />
        </mxCell>
        <mxCell id="RhT7fQPxTv40k2DqF1xs-35" value="price" style="text;strokeColor=none;fillColor=none;spacingLeft=4;spacingRight=4;overflow=hidden;rotatable=0;points=[[0,0.5],[1,0.5]];portConstraint=eastwest;fontSize=12;whiteSpace=wrap;html=1;" parent="RhT7fQPxTv40k2DqF1xs-32" vertex="1">
          <mxGeometry y="86" width="160" height="30" as="geometry" />
        </mxCell>
        <mxCell id="RhT7fQPxTv40k2DqF1xs-36" value="description" style="text;strokeColor=none;fillColor=none;spacingLeft=4;spacingRight=4;overflow=hidden;rotatable=0;points=[[0,0.5],[1,0.5]];portConstraint=eastwest;fontSize=12;whiteSpace=wrap;html=1;" parent="RhT7fQPxTv40k2DqF1xs-32" vertex="1">
          <mxGeometry y="116" width="160" height="30" as="geometry" />
        </mxCell>
        <mxCell id="RhT7fQPxTv40k2DqF1xs-37" value="" style="edgeStyle=orthogonalEdgeStyle;fontSize=12;html=1;endArrow=ERoneToMany;startArrow=ERzeroToMany;rounded=0;entryX=1;entryY=0.5;entryDx=0;entryDy=0;" parent="RhT7fQPxTv40k2DqF1xs-1" source="RhT7fQPxTv40k2DqF1xs-2" target="RhT7fQPxTv40k2DqF1xs-9" edge="1">
          <mxGeometry width="100" height="100" relative="1" as="geometry">
            <mxPoint x="1160" y="830" as="sourcePoint" />
            <mxPoint x="1180" y="730" as="targetPoint" />
            <Array as="points">
              <mxPoint x="1245" y="800" />
            </Array>
          </mxGeometry>
        </mxCell>
        <mxCell id="RhT7fQPxTv40k2DqF1xs-38" value="" style="edgeStyle=orthogonalEdgeStyle;fontSize=12;html=1;endArrow=ERoneToMany;startArrow=ERoneToMany;rounded=0;" parent="RhT7fQPxTv40k2DqF1xs-1" source="RhT7fQPxTv40k2DqF1xs-32" target="RhT7fQPxTv40k2DqF1xs-40" edge="1">
          <mxGeometry width="100" height="100" relative="1" as="geometry">
            <mxPoint x="1280" y="800" as="sourcePoint" />
            <mxPoint x="1380" y="700" as="targetPoint" />
          </mxGeometry>
        </mxCell>
        <mxCell id="RhT7fQPxTv40k2DqF1xs-39" value="" style="fontSize=12;html=1;endArrow=ERoneToMany;startArrow=ERoneToMany;rounded=0;edgeStyle=orthogonalEdgeStyle;" parent="RhT7fQPxTv40k2DqF1xs-1" source="RhT7fQPxTv40k2DqF1xs-2" target="RhT7fQPxTv40k2DqF1xs-26" edge="1">
          <mxGeometry width="100" height="100" relative="1" as="geometry">
            <mxPoint x="1250" y="730" as="sourcePoint" />
            <mxPoint x="1350" y="630" as="targetPoint" />
            <Array as="points">
              <mxPoint x="1410" y="758" />
              <mxPoint x="1410" y="700" />
            </Array>
          </mxGeometry>
        </mxCell>
        <mxCell id="RhT7fQPxTv40k2DqF1xs-40" value="courses" style="swimlane;fontStyle=0;childLayout=stackLayout;horizontal=1;startSize=26;horizontalStack=0;resizeParent=1;resizeParentMax=0;resizeLast=0;collapsible=1;marginBottom=0;align=center;fontSize=14;" parent="RhT7fQPxTv40k2DqF1xs-1" vertex="1">
          <mxGeometry x="1600" y="530" width="160" height="86" as="geometry" />
        </mxCell>
        <mxCell id="RhT7fQPxTv40k2DqF1xs-41" value="&lt;b&gt;&lt;u&gt;course_id&lt;/u&gt;&lt;/b&gt;" style="text;strokeColor=none;fillColor=none;spacingLeft=4;spacingRight=4;overflow=hidden;rotatable=0;points=[[0,0.5],[1,0.5]];portConstraint=eastwest;fontSize=12;whiteSpace=wrap;html=1;" parent="RhT7fQPxTv40k2DqF1xs-40" vertex="1">
          <mxGeometry y="26" width="160" height="30" as="geometry" />
        </mxCell>
        <mxCell id="RhT7fQPxTv40k2DqF1xs-42" value="course_name" style="text;strokeColor=none;fillColor=none;spacingLeft=4;spacingRight=4;overflow=hidden;rotatable=0;points=[[0,0.5],[1,0.5]];portConstraint=eastwest;fontSize=12;whiteSpace=wrap;html=1;" parent="RhT7fQPxTv40k2DqF1xs-40" vertex="1">
          <mxGeometry y="56" width="160" height="30" as="geometry" />
        </mxCell>
        <mxCell id="RhT7fQPxTv40k2DqF1xs-44" value="" style="edgeStyle=orthogonalEdgeStyle;fontSize=12;html=1;endArrow=ERzeroToMany;endFill=1;startArrow=ERzeroToMany;rounded=0;" parent="RhT7fQPxTv40k2DqF1xs-1" source="RhT7fQPxTv40k2DqF1xs-6" target="RhT7fQPxTv40k2DqF1xs-15" edge="1">
          <mxGeometry width="100" height="100" relative="1" as="geometry">
            <mxPoint x="1030" y="700" as="sourcePoint" />
            <mxPoint x="1030" y="646" as="targetPoint" />
            <Array as="points">
              <mxPoint x="1030" y="313" />
            </Array>
          </mxGeometry>
        </mxCell>
        <mxCell id="RhT7fQPxTv40k2DqF1xs-45" value="" style="edgeStyle=orthogonalEdgeStyle;fontSize=12;html=1;endArrow=ERoneToMany;startArrow=ERmandOne;rounded=0;" parent="RhT7fQPxTv40k2DqF1xs-1" source="RhT7fQPxTv40k2DqF1xs-6" target="RhT7fQPxTv40k2DqF1xs-22" edge="1">
          <mxGeometry width="100" height="100" relative="1" as="geometry">
            <mxPoint x="1110" y="870" as="sourcePoint" />
            <mxPoint x="1380" y="908" as="targetPoint" />
            <Array as="points">
              <mxPoint x="1255" y="870" />
              <mxPoint x="1255" y="908" />
            </Array>
          </mxGeometry>
        </mxCell>
        <mxCell id="RhT7fQPxTv40k2DqF1xs-46" value="" style="edgeStyle=orthogonalEdgeStyle;fontSize=12;html=1;endArrow=ERoneToMany;startArrow=ERmandOne;rounded=0;" parent="RhT7fQPxTv40k2DqF1xs-1" source="RhT7fQPxTv40k2DqF1xs-15" target="RhT7fQPxTv40k2DqF1xs-26" edge="1">
          <mxGeometry width="100" height="100" relative="1" as="geometry">
            <mxPoint x="1110" y="543" as="sourcePoint" />
            <mxPoint x="1170" y="678" as="targetPoint" />
            <Array as="points">
              <mxPoint x="1240" y="350" />
            </Array>
          </mxGeometry>
        </mxCell>
        <mxCell id="RhT7fQPxTv40k2DqF1xs-47" value="" style="edgeStyle=orthogonalEdgeStyle;fontSize=12;html=1;endArrow=ERoneToMany;startArrow=ERmandOne;rounded=0;" parent="RhT7fQPxTv40k2DqF1xs-1" source="RhT7fQPxTv40k2DqF1xs-15" target="RhT7fQPxTv40k2DqF1xs-32" edge="1">
          <mxGeometry width="100" height="100" relative="1" as="geometry">
            <mxPoint x="1110" y="520" as="sourcePoint" />
            <mxPoint x="1380" y="520" as="targetPoint" />
            <Array as="points">
              <mxPoint x="1550" y="470" />
              <mxPoint x="1460" y="470" />
            </Array>
          </mxGeometry>
        </mxCell>
        <mxCell id="RhT7fQPxTv40k2DqF1xs-48" value="" style="edgeStyle=orthogonalEdgeStyle;fontSize=12;html=1;endArrow=ERoneToMany;startArrow=ERmandOne;rounded=0;" parent="RhT7fQPxTv40k2DqF1xs-1" source="RhT7fQPxTv40k2DqF1xs-32" target="RhT7fQPxTv40k2DqF1xs-22" edge="1">
          <mxGeometry width="100" height="100" relative="1" as="geometry">
            <mxPoint x="1540" y="613" as="sourcePoint" />
            <mxPoint x="1540" y="908" as="targetPoint" />
            <Array as="points">
              <mxPoint x="1460" y="790" />
              <mxPoint x="1460" y="790" />
            </Array>
          </mxGeometry>
        </mxCell>
        <mxCell id="RhT7fQPxTv40k2DqF1xs-49" value="" style="edgeStyle=orthogonalEdgeStyle;fontSize=12;html=1;endArrow=ERoneToMany;startArrow=ERmandOne;rounded=0;" parent="RhT7fQPxTv40k2DqF1xs-1" source="RhT7fQPxTv40k2DqF1xs-40" target="RhT7fQPxTv40k2DqF1xs-2" edge="1">
          <mxGeometry width="100" height="100" relative="1" as="geometry">
            <mxPoint x="1630" y="670" as="sourcePoint" />
            <mxPoint x="1800" y="760" as="targetPoint" />
            <Array as="points">
              <mxPoint x="1690" y="758" />
            </Array>
          </mxGeometry>
        </mxCell>
      </root>
    </mxGraphModel>
  </diagram>
  <diagram name="Copy of Copy of ER Model" id="nxCc3_if7S8w91pRCXwK">
    <mxGraphModel dx="186" dy="614" grid="1" gridSize="10" guides="1" tooltips="1" connect="1" arrows="1" fold="1" page="1" pageScale="1" pageWidth="850" pageHeight="1100" math="0" shadow="0">
      <root>
        <mxCell id="KTuQIZRi4rmMOR5pQZYj-0" />
        <mxCell id="KTuQIZRi4rmMOR5pQZYj-1" parent="KTuQIZRi4rmMOR5pQZYj-0" />
        <mxCell id="KTuQIZRi4rmMOR5pQZYj-15" value="gyms" style="swimlane;fontStyle=0;childLayout=stackLayout;horizontal=1;startSize=26;horizontalStack=0;resizeParent=1;resizeParentMax=0;resizeLast=0;collapsible=1;marginBottom=0;align=center;fontSize=14;" vertex="1" parent="KTuQIZRi4rmMOR5pQZYj-1">
          <mxGeometry x="1500" y="210" width="160" height="206" as="geometry">
            <mxRectangle x="1070" y="344" width="70" height="30" as="alternateBounds" />
          </mxGeometry>
        </mxCell>
        <mxCell id="KTuQIZRi4rmMOR5pQZYj-16" value="&lt;b&gt;&lt;u&gt;gym_id&lt;/u&gt;&lt;/b&gt;" style="text;strokeColor=none;fillColor=none;spacingLeft=4;spacingRight=4;overflow=hidden;rotatable=0;points=[[0,0.5],[1,0.5]];portConstraint=eastwest;fontSize=12;whiteSpace=wrap;html=1;" vertex="1" parent="KTuQIZRi4rmMOR5pQZYj-15">
          <mxGeometry y="26" width="160" height="30" as="geometry" />
        </mxCell>
        <mxCell id="KTuQIZRi4rmMOR5pQZYj-17" value="gym_name" style="text;strokeColor=none;fillColor=none;spacingLeft=4;spacingRight=4;overflow=hidden;rotatable=0;points=[[0,0.5],[1,0.5]];portConstraint=eastwest;fontSize=12;whiteSpace=wrap;html=1;" vertex="1" parent="KTuQIZRi4rmMOR5pQZYj-15">
          <mxGeometry y="56" width="160" height="30" as="geometry" />
        </mxCell>
        <mxCell id="KTuQIZRi4rmMOR5pQZYj-18" value="address" style="text;strokeColor=none;fillColor=none;spacingLeft=4;spacingRight=4;overflow=hidden;rotatable=0;points=[[0,0.5],[1,0.5]];portConstraint=eastwest;fontSize=12;whiteSpace=wrap;html=1;" vertex="1" parent="KTuQIZRi4rmMOR5pQZYj-15">
          <mxGeometry y="86" width="160" height="30" as="geometry" />
        </mxCell>
        <mxCell id="KTuQIZRi4rmMOR5pQZYj-19" value="home_page" style="text;strokeColor=none;fillColor=none;spacingLeft=4;spacingRight=4;overflow=hidden;rotatable=0;points=[[0,0.5],[1,0.5]];portConstraint=eastwest;fontSize=12;whiteSpace=wrap;html=1;" vertex="1" parent="KTuQIZRi4rmMOR5pQZYj-15">
          <mxGeometry y="116" width="160" height="30" as="geometry" />
        </mxCell>
        <mxCell id="KTuQIZRi4rmMOR5pQZYj-20" value="phone" style="text;strokeColor=none;fillColor=none;spacingLeft=4;spacingRight=4;overflow=hidden;rotatable=0;points=[[0,0.5],[1,0.5]];portConstraint=eastwest;fontSize=12;whiteSpace=wrap;html=1;" vertex="1" parent="KTuQIZRi4rmMOR5pQZYj-15">
          <mxGeometry y="146" width="160" height="30" as="geometry" />
        </mxCell>
        <mxCell id="KTuQIZRi4rmMOR5pQZYj-21" value="email" style="text;strokeColor=none;fillColor=none;spacingLeft=4;spacingRight=4;overflow=hidden;rotatable=0;points=[[0,0.5],[1,0.5]];portConstraint=eastwest;fontSize=12;whiteSpace=wrap;html=1;" vertex="1" parent="KTuQIZRi4rmMOR5pQZYj-15">
          <mxGeometry y="176" width="160" height="30" as="geometry" />
        </mxCell>
        <mxCell id="KTuQIZRi4rmMOR5pQZYj-26" value="coaches" style="swimlane;fontStyle=0;childLayout=stackLayout;horizontal=1;startSize=26;horizontalStack=0;resizeParent=1;resizeParentMax=0;resizeLast=0;collapsible=1;marginBottom=0;align=center;fontSize=14;" vertex="1" parent="KTuQIZRi4rmMOR5pQZYj-1">
          <mxGeometry x="1170" y="220" width="160" height="176" as="geometry" />
        </mxCell>
        <mxCell id="KTuQIZRi4rmMOR5pQZYj-27" value="&lt;b&gt;&lt;u&gt;coach_id&lt;/u&gt;&lt;/b&gt;" style="text;strokeColor=none;fillColor=none;spacingLeft=4;spacingRight=4;overflow=hidden;rotatable=0;points=[[0,0.5],[1,0.5]];portConstraint=eastwest;fontSize=12;whiteSpace=wrap;html=1;" vertex="1" parent="KTuQIZRi4rmMOR5pQZYj-26">
          <mxGeometry y="26" width="160" height="30" as="geometry" />
        </mxCell>
        <mxCell id="KTuQIZRi4rmMOR5pQZYj-28" value="first_name" style="text;strokeColor=none;fillColor=none;spacingLeft=4;spacingRight=4;overflow=hidden;rotatable=0;points=[[0,0.5],[1,0.5]];portConstraint=eastwest;fontSize=12;whiteSpace=wrap;html=1;" vertex="1" parent="KTuQIZRi4rmMOR5pQZYj-26">
          <mxGeometry y="56" width="160" height="30" as="geometry" />
        </mxCell>
        <mxCell id="KTuQIZRi4rmMOR5pQZYj-29" value="last_name" style="text;strokeColor=none;fillColor=none;spacingLeft=4;spacingRight=4;overflow=hidden;rotatable=0;points=[[0,0.5],[1,0.5]];portConstraint=eastwest;fontSize=12;whiteSpace=wrap;html=1;" vertex="1" parent="KTuQIZRi4rmMOR5pQZYj-26">
          <mxGeometry y="86" width="160" height="30" as="geometry" />
        </mxCell>
        <mxCell id="KTuQIZRi4rmMOR5pQZYj-30" value="description" style="text;strokeColor=none;fillColor=none;spacingLeft=4;spacingRight=4;overflow=hidden;rotatable=0;points=[[0,0.5],[1,0.5]];portConstraint=eastwest;fontSize=12;whiteSpace=wrap;html=1;" vertex="1" parent="KTuQIZRi4rmMOR5pQZYj-26">
          <mxGeometry y="116" width="160" height="30" as="geometry" />
        </mxCell>
        <mxCell id="KTuQIZRi4rmMOR5pQZYj-31" value="employment_date" style="text;strokeColor=none;fillColor=none;spacingLeft=4;spacingRight=4;overflow=hidden;rotatable=0;points=[[0,0.5],[1,0.5]];portConstraint=eastwest;fontSize=12;whiteSpace=wrap;html=1;" vertex="1" parent="KTuQIZRi4rmMOR5pQZYj-26">
          <mxGeometry y="146" width="160" height="30" as="geometry" />
        </mxCell>
        <mxCell id="KTuQIZRi4rmMOR5pQZYj-45" value="" style="edgeStyle=orthogonalEdgeStyle;fontSize=12;html=1;endArrow=ERoneToMany;startArrow=ERmandOne;rounded=0;" edge="1" parent="KTuQIZRi4rmMOR5pQZYj-1" source="KTuQIZRi4rmMOR5pQZYj-15" target="KTuQIZRi4rmMOR5pQZYj-26">
          <mxGeometry width="100" height="100" relative="1" as="geometry">
            <mxPoint x="1110" y="543" as="sourcePoint" />
            <mxPoint x="1170" y="678" as="targetPoint" />
            <Array as="points">
              <mxPoint x="1240" y="350" />
            </Array>
          </mxGeometry>
        </mxCell>
      </root>
    </mxGraphModel>
  </diagram>
</mxfile>
